# xmcd
#
# Track frame offsets:
#	150
#	25330
#	49088
#	72806
#	93162
#	116404
#	135035
#	158709
#	178681
#	206214
#	230835
#	252425
#	274826
#
# Disc length: 3957 seconds
#
# Revision: 0
# Processed by: cddbd v1.5.2PL0 Copyright (c) Steve Scherf et al.
# Submitted via: EasyCDDAExtractor 2010.6.0.0
#
DISCID=b10f730d
DTITLE=Various Artist - Hospital Records - Sick Music 3
DYEAR=1900
DGENRE=
TTITLE0=High Contrast - Wish You Were Here (S.P.Y. remix)
TTITLE1=Total Science - Now As It Was Then
TTITLE2=AD Gannon - Tank
TTITLE3=Galimatias - Noelles Eloquence (S.I.N. remix)
TTITLE4=Microfunk Crew - Fluctuation
TTITLE5=Need For Mirrors - Time Teller
TTITLE6=Muffler - Dribble VIP
TTITLE7=Danny Byrd feat. General Levy - Blaze The Fire (RAH) (Stray Remix)
TTITLE8=Pluton and Skyer - Cosmic Rain
TTITLE9=Etherwood - Give It Up
TTITLE10=Jonny L - Moon
TTITLE11=Blu Mar Ten - Concierge Marie
TTITLE12=Keeno and Whitney feat. Louisa Bass - No More
EXTD=
EXTT0=
EXTT1=
EXTT2=
EXTT3=
EXTT4=
EXTT5=
EXTT6=
EXTT7=
EXTT8=
EXTT9=
EXTT10=
EXTT11=
EXTT12=
PLAYORDER=
